{
	"asset":{
		"generator":"Khronos glTF Blender I/O v5.1.20",
		"version":"2.0"
	},
	"scene":0,
	"scenes":[
		{
			"name":"Scene",
			"nodes":[
				6
			]
		}
	],
	"nodes":[
		{
			"name":"head",
			"translation":[
				0,
				0.25,
				0
			]
		},
		{
			"children":[
				0
			],
			"name":"spine",
			"translation":[
				0,
				0.25,
				0
			]
		},
		{
			"name":"legL",
			"rotation":[
				1,
				0,
				7.549790126404332e-08,
				0
			],
			"translation":[
				-0.125,
				0,
				0
			]
		},
		{
			"name":"legR",
			"rotation":[
				1,
				0,
				7.549790126404332e-08,
				0
			],
			"translation":[
				0.125,
				0,
				0
			]
		},
		{
			"children":[
				1,
				2,
				3
			],
			"name":"hips",
			"translation":[
				0,
				0.75,
				0
			]
		},
		{
			"mesh":0,
			"name":"player",
			"skin":0
		},
		{
			"children":[
				5,
				4
			],
			"name":"player_rig"
		}
	],
	"animations":[
		{
			"channels":[
				{
					"sampler":0,
					"target":{
						"node":4,
						"path":"translation"
					}
				},
				{
					"sampler":1,
					"target":{
						"node":4,
						"path":"rotation"
					}
				},
				{
					"sampler":2,
					"target":{
						"node":4,
						"path":"scale"
					}
				},
				{
					"sampler":3,
					"target":{
						"node":1,
						"path":"translation"
					}
				},
				{
					"sampler":4,
					"target":{
						"node":1,
						"path":"rotation"
					}
				},
				{
					"sampler":5,
					"target":{
						"node":1,
						"path":"scale"
					}
				},
				{
					"sampler":6,
					"target":{
						"node":0,
						"path":"translation"
					}
				},
				{
					"sampler":7,
					"target":{
						"node":0,
						"path":"rotation"
					}
				},
				{
					"sampler":8,
					"target":{
						"node":0,
						"path":"scale"
					}
				},
				{
					"sampler":9,
					"target":{
						"node":2,
						"path":"translation"
					}
				},
				{
					"sampler":10,
					"target":{
						"node":2,
						"path":"rotation"
					}
				},
				{
					"sampler":11,
					"target":{
						"node":2,
						"path":"scale"
					}
				},
				{
					"sampler":12,
					"target":{
						"node":3,
						"path":"translation"
					}
				},
				{
					"sampler":13,
					"target":{
						"node":3,
						"path":"rotation"
					}
				},
				{
					"sampler":14,
					"target":{
						"node":3,
						"path":"scale"
					}
				}
			],
			"name":"idle",
			"samplers":[
				{
					"input":47,
					"interpolation":"STEP",
					"output":48
				},
				{
					"input":47,
					"interpolation":"STEP",
					"output":49
				},
				{
					"input":47,
					"interpolation":"STEP",
					"output":50
				},
				{
					"input":47,
					"interpolation":"STEP",
					"output":51
				},
				{
					"input":52,
					"interpolation":"LINEAR",
					"output":53
				},
				{
					"input":47,
					"interpolation":"STEP",
					"output":50
				},
				{
					"input":47,
					"interpolation":"STEP",
					"output":51
				},
				{
					"input":52,
					"interpolation":"LINEAR",
					"output":54
				},
				{
					"input":47,
					"interpolation":"STEP",
					"output":50
				},
				{
					"input":47,
					"interpolation":"STEP",
					"output":55
				},
				{
					"input":47,
					"interpolation":"STEP",
					"output":56
				},
				{
					"input":47,
					"interpolation":"STEP",
					"output":50
				},
				{
					"input":47,
					"interpolation":"STEP",
					"output":57
				},
				{
					"input":47,
					"interpolation":"STEP",
					"output":56
				},
				{
					"input":47,
					"interpolation":"STEP",
					"output":50
				}
			]
		},
		{
			"channels":[
				{
					"sampler":0,
					"target":{
						"node":4,
						"path":"translation"
					}
				},
				{
					"sampler":1,
					"target":{
						"node":4,
						"path":"rotation"
					}
				},
				{
					"sampler":2,
					"target":{
						"node":4,
						"path":"scale"
					}
				},
				{
					"sampler":3,
					"target":{
						"node":1,
						"path":"translation"
					}
				},
				{
					"sampler":4,
					"target":{
						"node":1,
						"path":"rotation"
					}
				},
				{
					"sampler":5,
					"target":{
						"node":1,
						"path":"scale"
					}
				},
				{
					"sampler":6,
					"target":{
						"node":0,
						"path":"translation"
					}
				},
				{
					"sampler":7,
					"target":{
						"node":0,
						"path":"rotation"
					}
				},
				{
					"sampler":8,
					"target":{
						"node":0,
						"path":"scale"
					}
				},
				{
					"sampler":9,
					"target":{
						"node":2,
						"path":"translation"
					}
				},
				{
					"sampler":10,
					"target":{
						"node":2,
						"path":"rotation"
					}
				},
				{
					"sampler":11,
					"target":{
						"node":2,
						"path":"scale"
					}
				},
				{
					"sampler":12,
					"target":{
						"node":3,
						"path":"translation"
					}
				},
				{
					"sampler":13,
					"target":{
						"node":3,
						"path":"rotation"
					}
				},
				{
					"sampler":14,
					"target":{
						"node":3,
						"path":"scale"
					}
				}
			],
			"name":"walk",
			"samplers":[
				{
					"input":47,
					"interpolation":"STEP",
					"output":48
				},
				{
					"input":47,
					"interpolation":"STEP",
					"output":49
				},
				{
					"input":47,
					"interpolation":"STEP",
					"output":50
				},
				{
					"input":47,
					"interpolation":"STEP",
					"output":51
				},
				{
					"input":52,
					"interpolation":"LINEAR",
					"output":58
				},
				{
					"input":47,
					"interpolation":"STEP",
					"output":50
				},
				{
					"input":47,
					"interpolation":"STEP",
					"output":59
				},
				{
					"input":52,
					"interpolation":"LINEAR",
					"output":60
				},
				{
					"input":47,
					"interpolation":"STEP",
					"output":50
				},
				{
					"input":47,
					"interpolation":"STEP",
					"output":55
				},
				{
					"input":52,
					"interpolation":"LINEAR",
					"output":61
				},
				{
					"input":47,
					"interpolation":"STEP",
					"output":50
				},
				{
					"input":47,
					"interpolation":"STEP",
					"output":57
				},
				{
					"input":52,
					"interpolation":"LINEAR",
					"output":62
				},
				{
					"input":47,
					"interpolation":"STEP",
					"output":50
				}
			]
		},
		{
			"channels":[
				{
					"sampler":0,
					"target":{
						"node":4,
						"path":"translation"
					}
				},
				{
					"sampler":1,
					"target":{
						"node":4,
						"path":"rotation"
					}
				},
				{
					"sampler":2,
					"target":{
						"node":4,
						"path":"scale"
					}
				},
				{
					"sampler":3,
					"target":{
						"node":1,
						"path":"translation"
					}
				},
				{
					"sampler":4,
					"target":{
						"node":1,
						"path":"rotation"
					}
				},
				{
					"sampler":5,
					"target":{
						"node":1,
						"path":"scale"
					}
				},
				{
					"sampler":6,
					"target":{
						"node":0,
						"path":"translation"
					}
				},
				{
					"sampler":7,
					"target":{
						"node":0,
						"path":"rotation"
					}
				},
				{
					"sampler":8,
					"target":{
						"node":0,
						"path":"scale"
					}
				},
				{
					"sampler":9,
					"target":{
						"node":2,
						"path":"translation"
					}
				},
				{
					"sampler":10,
					"target":{
						"node":2,
						"path":"rotation"
					}
				},
				{
					"sampler":11,
					"target":{
						"node":2,
						"path":"scale"
					}
				},
				{
					"sampler":12,
					"target":{
						"node":3,
						"path":"translation"
					}
				},
				{
					"sampler":13,
					"target":{
						"node":3,
						"path":"rotation"
					}
				},
				{
					"sampler":14,
					"target":{
						"node":3,
						"path":"scale"
					}
				}
			],
			"name":"jump",
			"samplers":[
				{
					"input":63,
					"interpolation":"STEP",
					"output":48
				},
				{
					"input":63,
					"interpolation":"STEP",
					"output":49
				},
				{
					"input":63,
					"interpolation":"STEP",
					"output":50
				},
				{
					"input":63,
					"interpolation":"STEP",
					"output":51
				},
				{
					"input":64,
					"interpolation":"LINEAR",
					"output":65
				},
				{
					"input":63,
					"interpolation":"STEP",
					"output":66
				},
				{
					"input":63,
					"interpolation":"STEP",
					"output":51
				},
				{
					"input":64,
					"interpolation":"LINEAR",
					"output":67
				},
				{
					"input":63,
					"interpolation":"STEP",
					"output":68
				},
				{
					"input":63,
					"interpolation":"STEP",
					"output":55
				},
				{
					"input":64,
					"interpolation":"LINEAR",
					"output":69
				},
				{
					"input":63,
					"interpolation":"STEP",
					"output":50
				},
				{
					"input":63,
					"interpolation":"STEP",
					"output":57
				},
				{
					"input":64,
					"interpolation":"LINEAR",
					"output":70
				},
				{
					"input":63,
					"interpolation":"STEP",
					"output":66
				}
			]
		}
	],
	"materials":[
		{
			"doubleSided":true,
			"name":"hair",
			"pbrMetallicRoughness":{
				"baseColorFactor":[
					0.05999999865889549,
					0.05999999865889549,
					0.10000000149011612,
					1
				],
				"metallicFactor":0,
				"roughnessFactor":0.5
			}
		},
		{
			"doubleSided":true,
			"name":"face",
			"pbrMetallicRoughness":{
				"baseColorFactor":[
					0.9200000166893005,
					0.6200000047683716,
					0.3499999940395355,
					1
				],
				"metallicFactor":0,
				"roughnessFactor":0.5
			}
		},
		{
			"doubleSided":true,
			"name":"torso",
			"pbrMetallicRoughness":{
				"baseColorFactor":[
					0.8999999761581421,
					0.25,
					0.30000001192092896,
					1
				],
				"metallicFactor":0,
				"roughnessFactor":0.5
			}
		},
		{
			"doubleSided":true,
			"name":"armL",
			"pbrMetallicRoughness":{
				"baseColorFactor":[
					0.8999999761581421,
					0.25,
					0.30000001192092896,
					1
				],
				"metallicFactor":0,
				"roughnessFactor":0.5
			}
		},
		{
			"doubleSided":true,
			"name":"armR",
			"pbrMetallicRoughness":{
				"baseColorFactor":[
					0.8999999761581421,
					0.25,
					0.30000001192092896,
					1
				],
				"metallicFactor":0,
				"roughnessFactor":0.5
			}
		},
		{
			"doubleSided":true,
			"name":"legL",
			"pbrMetallicRoughness":{
				"baseColorFactor":[
					0.18000000715255737,
					0.3199999928474426,
					0.6800000071525574,
					1
				],
				"metallicFactor":0,
				"roughnessFactor":0.5
			}
		},
		{
			"doubleSided":true,
			"name":"legR",
			"pbrMetallicRoughness":{
				"baseColorFactor":[
					0.18000000715255737,
					0.3199999928474426,
					0.6800000071525574,
					1
				],
				"metallicFactor":0,
				"roughnessFactor":0.5
			}
		},
		{
			"doubleSided":true,
			"name":"footL",
			"pbrMetallicRoughness":{
				"baseColorFactor":[
					0.949999988079071,
					0.8999999761581421,
					0.3499999940395355,
					1
				],
				"metallicFactor":0,
				"roughnessFactor":0.5
			}
		},
		{
			"doubleSided":true,
			"name":"footR",
			"pbrMetallicRoughness":{
				"baseColorFactor":[
					0.949999988079071,
					0.8999999761581421,
					0.3499999940395355,
					1
				],
				"metallicFactor":0,
				"roughnessFactor":0.5
			}
		}
	],
	"meshes":[
		{
			"name":"Cube",
			"primitives":[
				{
					"attributes":{
						"POSITION":0,
						"NORMAL":1,
						"TEXCOORD_0":2,
						"JOINTS_0":3,
						"WEIGHTS_0":4
					},
					"indices":5,
					"material":0
				},
				{
					"attributes":{
						"POSITION":6,
						"NORMAL":7,
						"TEXCOORD_0":8,
						"JOINTS_0":9,
						"WEIGHTS_0":10
					},
					"indices":5,
					"material":1
				},
				{
					"attributes":{
						"POSITION":11,
						"NORMAL":12,
						"TEXCOORD_0":13,
						"JOINTS_0":14,
						"WEIGHTS_0":15
					},
					"indices":5,
					"material":2
				},
				{
					"attributes":{
						"POSITION":16,
						"NORMAL":17,
						"TEXCOORD_0":18,
						"JOINTS_0":19,
						"WEIGHTS_0":20
					},
					"indices":5,
					"material":3
				},
				{
					"attributes":{
						"POSITION":21,
						"NORMAL":22,
						"TEXCOORD_0":23,
						"JOINTS_0":24,
						"WEIGHTS_0":25
					},
					"indices":5,
					"material":4
				},
				{
					"attributes":{
						"POSITION":26,
						"NORMAL":27,
						"TEXCOORD_0":28,
						"JOINTS_0":29,
						"WEIGHTS_0":30
					},
					"indices":5,
					"material":5
				},
				{
					"attributes":{
						"POSITION":31,
						"NORMAL":32,
						"TEXCOORD_0":33,
						"JOINTS_0":34,
						"WEIGHTS_0":35
					},
					"indices":5,
					"material":6
				},
				{
					"attributes":{
						"POSITION":36,
						"NORMAL":37,
						"TEXCOORD_0":38,
						"JOINTS_0":39,
						"WEIGHTS_0":40
					},
					"indices":5,
					"material":7
				},
				{
					"attributes":{
						"POSITION":41,
						"NORMAL":42,
						"TEXCOORD_0":43,
						"JOINTS_0":44,
						"WEIGHTS_0":45
					},
					"indices":5,
					"material":8
				}
			]
		}
	],
	"skins":[
		{
			"inverseBindMatrices":46,
			"joints":[
				4,
				1,
				0,
				2,
				3
			],
			"name":"player_rig"
		}
	],
	"accessors":[
		{
			"bufferView":0,
			"componentType":5126,
			"count":24,
			"max":[
				0.28125,
				2,
				0.3125
			],
			"min":[
				-0.28125,
				1.25,
				-0.1875
			],
			"type":"VEC3"
		},
		{
			"bufferView":1,
			"componentType":5126,
			"count":24,
			"type":"VEC3"
		},
		{
			"bufferView":2,
			"componentType":5126,
			"count":24,
			"type":"VEC2"
		},
		{
			"bufferView":3,
			"componentType":5121,
			"count":24,
			"type":"VEC4"
		},
		{
			"bufferView":4,
			"componentType":5126,
			"count":24,
			"type":"VEC4"
		},
		{
			"bufferView":5,
			"componentType":5123,
			"count":36,
			"type":"SCALAR"
		},
		{
			"bufferView":6,
			"componentType":5126,
			"count":24,
			"max":[
				0.21875,
				1.71875,
				0.09375
			],
			"min":[
				-0.21875,
				1.28125,
				-0.34375
			],
			"type":"VEC3"
		},
		{
			"bufferView":7,
			"componentType":5126,
			"count":24,
			"type":"VEC3"
		},
		{
			"bufferView":8,
			"componentType":5126,
			"count":24,
			"type":"VEC2"
		},
		{
			"bufferView":9,
			"componentType":5121,
			"count":24,
			"type":"VEC4"
		},
		{
			"bufferView":10,
			"componentType":5126,
			"count":24,
			"type":"VEC4"
		},
		{
			"bufferView":11,
			"componentType":5126,
			"count":24,
			"max":[
				0.25,
				1.25,
				0.1875
			],
			"min":[
				-0.25,
				0.75,
				-0.1875
			],
			"type":"VEC3"
		},
		{
			"bufferView":12,
			"componentType":5126,
			"count":24,
			"type":"VEC3"
		},
		{
			"bufferView":13,
			"componentType":5126,
			"count":24,
			"type":"VEC2"
		},
		{
			"bufferView":14,
			"componentType":5121,
			"count":24,
			"type":"VEC4"
		},
		{
			"bufferView":15,
			"componentType":5126,
			"count":24,
			"type":"VEC4"
		},
		{
			"bufferView":16,
			"componentType":5126,
			"count":24,
			"max":[
				-0.25,
				1.1875,
				0.125
			],
			"min":[
				-0.5,
				0.8125,
				-0.125
			],
			"type":"VEC3"
		},
		{
			"bufferView":17,
			"componentType":5126,
			"count":24,
			"type":"VEC3"
		},
		{
			"bufferView":18,
			"componentType":5126,
			"count":24,
			"type":"VEC2"
		},
		{
			"bufferView":19,
			"componentType":5121,
			"count":24,
			"type":"VEC4"
		},
		{
			"bufferView":20,
			"componentType":5126,
			"count":24,
			"type":"VEC4"
		},
		{
			"bufferView":21,
			"componentType":5126,
			"count":24,
			"max":[
				0.5,
				1.1875,
				0.125
			],
			"min":[
				0.25,
				0.8125,
				-0.125
			],
			"type":"VEC3"
		},
		{
			"bufferView":22,
			"componentType":5126,
			"count":24,
			"type":"VEC3"
		},
		{
			"bufferView":23,
			"componentType":5126,
			"count":24,
			"type":"VEC2"
		},
		{
			"bufferView":24,
			"componentType":5121,
			"count":24,
			"type":"VEC4"
		},
		{
			"bufferView":25,
			"componentType":5126,
			"count":24,
			"type":"VEC4"
		},
		{
			"bufferView":26,
			"componentType":5126,
			"count":24,
			"max":[
				0,
				0.75,
				0.125
			],
			"min":[
				-0.25,
				0.25,
				-0.125
			],
			"type":"VEC3"
		},
		{
			"bufferView":27,
			"componentType":5126,
			"count":24,
			"type":"VEC3"
		},
		{
			"bufferView":28,
			"componentType":5126,
			"count":24,
			"type":"VEC2"
		},
		{
			"bufferView":29,
			"componentType":5121,
			"count":24,
			"type":"VEC4"
		},
		{
			"bufferView":30,
			"componentType":5126,
			"count":24,
			"type":"VEC4"
		},
		{
			"bufferView":31,
			"componentType":5126,
			"count":24,
			"max":[
				0.25,
				0.75,
				0.125
			],
			"min":[
				0,
				0.25,
				-0.125
			],
			"type":"VEC3"
		},
		{
			"bufferView":32,
			"componentType":5126,
			"count":24,
			"type":"VEC3"
		},
		{
			"bufferView":33,
			"componentType":5126,
			"count":24,
			"type":"VEC2"
		},
		{
			"bufferView":34,
			"componentType":5121,
			"count":24,
			"type":"VEC4"
		},
		{
			"bufferView":35,
			"componentType":5126,
			"count":24,
			"type":"VEC4"
		},
		{
			"bufferView":36,
			"componentType":5126,
			"count":24,
			"max":[
				0.0625,
				0.25,
				0.1875
			],
			"min":[
				-0.3125,
				0,
				-0.3125
			],
			"type":"VEC3"
		},
		{
			"bufferView":37,
			"componentType":5126,
			"count":24,
			"type":"VEC3"
		},
		{
			"bufferView":38,
			"componentType":5126,
			"count":24,
			"type":"VEC2"
		},
		{
			"bufferView":39,
			"componentType":5121,
			"count":24,
			"type":"VEC4"
		},
		{
			"bufferView":40,
			"componentType":5126,
			"count":24,
			"type":"VEC4"
		},
		{
			"bufferView":41,
			"componentType":5126,
			"count":24,
			"max":[
				0.3125,
				0.25,
				0.1875
			],
			"min":[
				-0.0625,
				0,
				-0.3125
			],
			"type":"VEC3"
		},
		{
			"bufferView":42,
			"componentType":5126,
			"count":24,
			"type":"VEC3"
		},
		{
			"bufferView":43,
			"componentType":5126,
			"count":24,
			"type":"VEC2"
		},
		{
			"bufferView":44,
			"componentType":5121,
			"count":24,
			"type":"VEC4"
		},
		{
			"bufferView":45,
			"componentType":5126,
			"count":24,
			"type":"VEC4"
		},
		{
			"bufferView":46,
			"componentType":5126,
			"count":5,
			"type":"MAT4"
		},
		{
			"bufferView":47,
			"componentType":5126,
			"count":2,
			"max":[
				1.0416666666666667
			],
			"min":[
				0.041666666666666664
			],
			"type":"SCALAR"
		},
		{
			"bufferView":48,
			"componentType":5126,
			"count":2,
			"type":"VEC3"
		},
		{
			"bufferView":49,
			"componentType":5126,
			"count":2,
			"type":"VEC4"
		},
		{
			"bufferView":50,
			"componentType":5126,
			"count":2,
			"type":"VEC3"
		},
		{
			"bufferView":51,
			"componentType":5126,
			"count":2,
			"type":"VEC3"
		},
		{
			"bufferView":52,
			"componentType":5126,
			"count":25,
			"max":[
				1.0416666666666667
			],
			"min":[
				0.041666666666666664
			],
			"type":"SCALAR"
		},
		{
			"bufferView":53,
			"componentType":5126,
			"count":25,
			"type":"VEC4"
		},
		{
			"bufferView":54,
			"componentType":5126,
			"count":25,
			"type":"VEC4"
		},
		{
			"bufferView":55,
			"componentType":5126,
			"count":2,
			"type":"VEC3"
		},
		{
			"bufferView":56,
			"componentType":5126,
			"count":2,
			"type":"VEC4"
		},
		{
			"bufferView":57,
			"componentType":5126,
			"count":2,
			"type":"VEC3"
		},
		{
			"bufferView":58,
			"componentType":5126,
			"count":25,
			"type":"VEC4"
		},
		{
			"bufferView":59,
			"componentType":5126,
			"count":2,
			"type":"VEC3"
		},
		{
			"bufferView":60,
			"componentType":5126,
			"count":25,
			"type":"VEC4"
		},
		{
			"bufferView":61,
			"componentType":5126,
			"count":25,
			"type":"VEC4"
		},
		{
			"bufferView":62,
			"componentType":5126,
			"count":25,
			"type":"VEC4"
		},
		{
			"bufferView":63,
			"componentType":5126,
			"count":2,
			"max":[
				0.5416666666666666
			],
			"min":[
				0.041666666666666664
			],
			"type":"SCALAR"
		},
		{
			"bufferView":64,
			"componentType":5126,
			"count":13,
			"max":[
				0.5416666666666666
			],
			"min":[
				0.041666666666666664
			],
			"type":"SCALAR"
		},
		{
			"bufferView":65,
			"componentType":5126,
			"count":13,
			"type":"VEC4"
		},
		{
			"bufferView":66,
			"componentType":5126,
			"count":2,
			"type":"VEC3"
		},
		{
			"bufferView":67,
			"componentType":5126,
			"count":13,
			"type":"VEC4"
		},
		{
			"bufferView":68,
			"componentType":5126,
			"count":2,
			"type":"VEC3"
		},
		{
			"bufferView":69,
			"componentType":5126,
			"count":13,
			"type":"VEC4"
		},
		{
			"bufferView":70,
			"componentType":5126,
			"count":13,
			"type":"VEC4"
		}
	],
	"bufferViews":[
		{
			"buffer":0,
			"byteLength":288,
			"byteOffset":0,
			"target":34962
		},
		{
			"buffer":0,
			"byteLength":288,
			"byteOffset":288,
			"target":34962
		},
		{
			"buffer":0,
			"byteLength":192,
			"byteOffset":576,
			"target":34962
		},
		{
			"buffer":0,
			"byteLength":96,
			"byteOffset":768,
			"target":34962
		},
		{
			"buffer":0,
			"byteLength":384,
			"byteOffset":864,
			"target":34962
		},
		{
			"buffer":0,
			"byteLength":72,
			"byteOffset":1248,
			"target":34963
		},
		{
			"buffer":0,
			"byteLength":288,
			"byteOffset":1320,
			"target":34962
		},
		{
			"buffer":0,
			"byteLength":288,
			"byteOffset":1608,
			"target":34962
		},
		{
			"buffer":0,
			"byteLength":192,
			"byteOffset":1896,
			"target":34962
		},
		{
			"buffer":0,
			"byteLength":96,
			"byteOffset":2088,
			"target":34962
		},
		{
			"buffer":0,
			"byteLength":384,
			"byteOffset":2184,
			"target":34962
		},
		{
			"buffer":0,
			"byteLength":288,
			"byteOffset":2568,
			"target":34962
		},
		{
			"buffer":0,
			"byteLength":288,
			"byteOffset":2856,
			"target":34962
		},
		{
			"buffer":0,
			"byteLength":192,
			"byteOffset":3144,
			"target":34962
		},
		{
			"buffer":0,
			"byteLength":96,
			"byteOffset":3336,
			"target":34962
		},
		{
			"buffer":0,
			"byteLength":384,
			"byteOffset":3432,
			"target":34962
		},
		{
			"buffer":0,
			"byteLength":288,
			"byteOffset":3816,
			"target":34962
		},
		{
			"buffer":0,
			"byteLength":288,
			"byteOffset":4104,
			"target":34962
		},
		{
			"buffer":0,
			"byteLength":192,
			"byteOffset":4392,
			"target":34962
		},
		{
			"buffer":0,
			"byteLength":96,
			"byteOffset":4584,
			"target":34962
		},
		{
			"buffer":0,
			"byteLength":384,
			"byteOffset":4680,
			"target":34962
		},
		{
			"buffer":0,
			"byteLength":288,
			"byteOffset":5064,
			"target":34962
		},
		{
			"buffer":0,
			"byteLength":288,
			"byteOffset":5352,
			"target":34962
		},
		{
			"buffer":0,
			"byteLength":192,
			"byteOffset":5640,
			"target":34962
		},
		{
			"buffer":0,
			"byteLength":96,
			"byteOffset":5832,
			"target":34962
		},
		{
			"buffer":0,
			"byteLength":384,
			"byteOffset":5928,
			"target":34962
		},
		{
			"buffer":0,
			"byteLength":288,
			"byteOffset":6312,
			"target":34962
		},
		{
			"buffer":0,
			"byteLength":288,
			"byteOffset":6600,
			"target":34962
		},
		{
			"buffer":0,
			"byteLength":192,
			"byteOffset":6888,
			"target":34962
		},
		{
			"buffer":0,
			"byteLength":96,
			"byteOffset":7080,
			"target":34962
		},
		{
			"buffer":0,
			"byteLength":384,
			"byteOffset":7176,
			"target":34962
		},
		{
			"buffer":0,
			"byteLength":288,
			"byteOffset":7560,
			"target":34962
		},
		{
			"buffer":0,
			"byteLength":288,
			"byteOffset":7848,
			"target":34962
		},
		{
			"buffer":0,
			"byteLength":192,
			"byteOffset":8136,
			"target":34962
		},
		{
			"buffer":0,
			"byteLength":96,
			"byteOffset":8328,
			"target":34962
		},
		{
			"buffer":0,
			"byteLength":384,
			"byteOffset":8424,
			"target":34962
		},
		{
			"buffer":0,
			"byteLength":288,
			"byteOffset":8808,
			"target":34962
		},
		{
			"buffer":0,
			"byteLength":288,
			"byteOffset":9096,
			"target":34962
		},
		{
			"buffer":0,
			"byteLength":192,
			"byteOffset":9384,
			"target":34962
		},
		{
			"buffer":0,
			"byteLength":96,
			"byteOffset":9576,
			"target":34962
		},
		{
			"buffer":0,
			"byteLength":384,
			"byteOffset":9672,
			"target":34962
		},
		{
			"buffer":0,
			"byteLength":288,
			"byteOffset":10056,
			"target":34962
		},
		{
			"buffer":0,
			"byteLength":288,
			"byteOffset":10344,
			"target":34962
		},
		{
			"buffer":0,
			"byteLength":192,
			"byteOffset":10632,
			"target":34962
		},
		{
			"buffer":0,
			"byteLength":96,
			"byteOffset":10824,
			"target":34962
		},
		{
			"buffer":0,
			"byteLength":384,
			"byteOffset":10920,
			"target":34962
		},
		{
			"buffer":0,
			"byteLength":320,
			"byteOffset":11304
		},
		{
			"buffer":0,
			"byteLength":8,
			"byteOffset":11624
		},
		{
			"buffer":0,
			"byteLength":24,
			"byteOffset":11632
		},
		{
			"buffer":0,
			"byteLength":32,
			"byteOffset":11656
		},
		{
			"buffer":0,
			"byteLength":24,
			"byteOffset":11688
		},
		{
			"buffer":0,
			"byteLength":24,
			"byteOffset":11712
		},
		{
			"buffer":0,
			"byteLength":100,
			"byteOffset":11736
		},
		{
			"buffer":0,
			"byteLength":400,
			"byteOffset":11836
		},
		{
			"buffer":0,
			"byteLength":400,
			"byteOffset":12236
		},
		{
			"buffer":0,
			"byteLength":24,
			"byteOffset":12636
		},
		{
			"buffer":0,
			"byteLength":32,
			"byteOffset":12660
		},
		{
			"buffer":0,
			"byteLength":24,
			"byteOffset":12692
		},
		{
			"buffer":0,
			"byteLength":400,
			"byteOffset":12716
		},
		{
			"buffer":0,
			"byteLength":24,
			"byteOffset":13116
		},
		{
			"buffer":0,
			"byteLength":400,
			"byteOffset":13140
		},
		{
			"buffer":0,
			"byteLength":400,
			"byteOffset":13540
		},
		{
			"buffer":0,
			"byteLength":400,
			"byteOffset":13940
		},
		{
			"buffer":0,
			"byteLength":8,
			"byteOffset":14340
		},
		{
			"buffer":0,
			"byteLength":52,
			"byteOffset":14348
		},
		{
			"buffer":0,
			"byteLength":208,
			"byteOffset":14400
		},
		{
			"buffer":0,
			"byteLength":24,
			"byteOffset":14608
		},
		{
			"buffer":0,
			"byteLength":208,
			"byteOffset":14632
		},
		{
			"buffer":0,
			"byteLength":24,
			"byteOffset":14840
		},
		{
			"buffer":0,
			"byteLength":208,
			"byteOffset":14864
		},
		{
			"buffer":0,
			"byteLength":208,
			"byteOffset":15072
		}
	],
	"buffers":[
		{
			"byteLength":15280,
			"uri":"player.bin"
		}
	]
}
